<?xml version="1.0" encoding="utf-8"?>
<!-- Generator: Adobe Illustrator 26.5.0, SVG Export Plug-In . SVG Version: 6.00 Build 0)  -->
<svg version="1.1" id="Layer_1" xmlns="http://www.w3.org/2000/svg" xmlns:xlink="http://www.w3.org/1999/xlink" x="0px" y="0px"
	 viewBox="0 0 700 700" style="enable-background:new 0 0 700 700;" xml:space="preserve">
<style type="text/css">
	.st0{fill:#754C29;}
	.st1{fill:#FFFFFF;}
</style>
<symbol  id="d" viewBox="-5.7 -7.8 11.4 15.7">
	<path d="M5.7-3.3C5.2-3.5,4.8-3.6,4.4-3.7C4-3.8,3.6-3.9,3.1-3.9c-1.3,0-2.2,0.4-2.9,1.2c-0.7,0.8-1,2-1,3.5v7.1h-4.9V-7.5h4.9V-5
		c0.6-1,1.3-1.7,2.2-2.2c0.8-0.5,1.8-0.7,2.9-0.7c0.2,0,0.3,0,0.5,0c0.2,0,0.5,0,0.8,0.1L5.7-3.3z"/>
</symbol>
<circle class="st0" cx="372" cy="383.8" r="282.2"/>
<g>
	<path class="st1" d="M374.9,562.5c12.4,0-21.1,24.1,71.4,28.8c92.5,4.7,90.6-131,55.9-154.4c-34.8-23.4-13-30.7-36-63.5
		c-23-32.8-91.2-29.4-91.2-29.4s-68.4-3.3-91.4,29.4c-23,32.8-1.2,40.1-36,63.5c-34.8,23.4-36.7,159.1,55.9,154.4
		C396,586.6,362.5,562.5,374.9,562.5L374.9,562.5z"/>
	<path class="st1" d="M298.8,592.8L298.8,592.8c-45.8,0-63.1-34.5-69.4-55c-11.8-38.6-3.4-88.2,17.2-102
		c19.4-13,20.7-20.7,22.6-31.2c1.4-7.9,3.1-17.6,13.1-31.9c19.6-27.9,71.7-30.1,87.2-30.1c3.3,0,5.3,0.1,5.4,0.1c0,0,2-0.1,5.3-0.1
		c15.5,0,67.4,2.2,87,30.1c10,14.3,11.7,24.1,13.1,31.9c1.8,10.5,3.2,18.2,22.5,31.2c20.6,13.9,29,63.5,17.2,102.1
		c-6.5,21.2-24.9,57.2-73.9,54.8c-69-3.5-69.2-18-69.3-25.8c0-2.8-0.1-3-2-3c-1.9,0-2,0.2-2,3c-0.1,7.8-0.3,22.3-69.4,25.8
		C301.9,592.7,300.3,592.8,298.8,592.8L298.8,592.8z M369.5,345.2c-15.1,0-66,2.1-84.9,28.9c-9.7,13.8-11.3,22.8-12.6,30.8
		c-1.9,10.8-3.4,19.3-23.8,33c-19.7,13.3-27.6,61.4-16.1,98.9c6,19.8,22.7,53.1,66.7,53.1h0c1.5,0,3,0,4.5-0.1
		c66.5-3.4,66.7-16.6,66.8-23c0-2.5,0.1-5.7,4.8-5.7c4.7,0,4.7,3.2,4.8,5.7c0.1,6.4,0.3,19.7,66.7,23c1.5,0.1,3.1,0.1,4.5,0.1
		c43.8,0,60.5-33.2,66.6-53c11.5-37.6,3.7-85.7-16.1-99c-20.3-13.7-21.8-22.2-23.7-33c-1.4-8-3-17-12.6-30.8
		c-18.8-26.8-69.6-28.9-84.7-28.9c-3.3,0-5.3,0.1-5.3,0.1C374.8,345.3,372.9,345.2,369.5,345.2L369.5,345.2z"/>
	<path class="st1" d="M415.5,225.3c0,35.9-19.5,65-43.5,65s-43.5-29.1-43.5-65s19.5-65,43.5-65S415.5,189.4,415.5,225.3"/>
	<path class="st1" d="M372,291.6c-24.8,0-44.9-29.8-44.9-66.4s20.1-66.4,44.9-66.4s44.9,29.8,44.9,66.4S396.7,291.6,372,291.6
		L372,291.6z M372,161.7c-23.2,0-42.1,28.5-42.1,63.6s18.9,63.6,42.1,63.6s42.1-28.5,42.1-63.6S395.2,161.7,372,161.7z"/>
	<path class="st1" d="M360.8,167.1l11.2-45.2l9.9,45.2"/>
	<path class="st1" d="M362.1,167.4l-2.7-0.7l12.6-51l11.2,51l-2.7,0.6l-8.7-39.4L362.1,167.4z"/>
	<path class="st1" d="M281,265.7c11.3,33.4,5,65.7-13.9,72.1c-18.9,6.4-43.3-15.6-54.6-49s-5-65.7,13.9-72.1
		C245.3,210.3,269.7,232.3,281,265.7"/>
	<path class="st1" d="M260.3,340.3c-18.5,0-39.2-21.5-49.1-51.1c-11.5-34.1-4.9-67.2,14.7-73.8c2.3-0.8,4.7-1.2,7.2-1.2
		c18.5,0,39.2,21.5,49.1,51.1c11.5,34.1,4.9,67.2-14.7,73.8C265.3,339.9,262.8,340.3,260.3,340.3z M233.2,216.9
		c-2.2,0-4.3,0.3-6.4,1c-18.1,6.1-24,37.7-13,70.3c9.6,28.5,29.1,49.2,46.5,49.2c2.2,0,4.3-0.3,6.4-1c18.1-6.1,24-37.7,13-70.3
		C270.1,237.6,250.5,216.9,233.2,216.9L233.2,216.9z"/>
	<path class="st1" d="M217.4,239.1c0,0-3-49.8,4.9-54.3c0,0,7.3,52.9,12.9,52.5"/>
	<path class="st1" d="M216,239.2c-0.5-8.5-2.7-50.9,5.6-55.6l1.8-1l0.3,2c3.3,23.5,8.6,49.8,11.6,51.3l0,2.7h-0.1
		c-5.4,0-10.4-26.7-13.8-50.6c-3.6,8-3.6,34.2-2.5,50.9L216,239.2z"/>
	<path class="st1" d="M220.4,385.5c10,26.1,4.5,51.3-12.3,56.2c-16.8,5-38.6-12.2-48.6-38.3c-10-26.1-4.5-51.3,12.3-56.3
		C188.7,342.2,210.4,359.4,220.4,385.5L220.4,385.5z"/>
	<path class="st1" d="M202.1,444c-16.5,0-35-16.8-43.8-40c-6.4-16.7-6.8-33.7-1-45.4c3.2-6.5,8.1-10.9,14.3-12.7
		c2.1-0.6,4.2-0.9,6.4-0.9c16.5,0,35,16.8,43.8,40c6.4,16.7,6.8,33.7,1,45.4c-3.2,6.5-8.1,10.9-14.3,12.7
		C206.4,443.6,204.3,444,202.1,444L202.1,444z M177.9,347.7c-2,0-3.9,0.3-5.7,0.8c-5.4,1.6-9.7,5.5-12.6,11.3
		c-5.4,11-5,27.1,1.1,43.2c8.5,22.2,25.9,38.2,41.3,38.2c2,0,3.9-0.3,5.7-0.8c5.4-1.6,9.7-5.5,12.6-11.2c5.4-11,5-27.2-1.1-43.2
		C210.6,363.8,193.3,347.7,177.9,347.7L177.9,347.7z"/>
	<path class="st1" d="M163.9,364.7c0,0-2.7-38.9,4.3-42.4c0,0,6.5,41.3,11.5,41"/>
	<path class="st1" d="M162.5,364.8c-0.5-6.6-2.4-40,5.1-43.8l1.7-0.9l0.3,1.9c2.9,18.2,7.6,38.6,10.2,39.8v2.7c0,0-0.1,0-0.1,0
		c-4.8,0-9.3-20.6-12.4-39.2c-2.8,6.3-3,25.5-2.1,39.1L162.5,364.8z"/>
	<path class="st1" d="M465.9,265.7c-11,33.4-4.9,65.7,13.5,72.1c18.5,6.4,42.3-15.6,53.3-49c11-33.4,4.9-65.7-13.5-72.1
		C500.8,210.3,476.9,232.3,465.9,265.7L465.9,265.7z"/>
	<path class="st1" d="M486.1,340.3c-2.4,0-4.8-0.4-7.1-1.2c-19.2-6.6-25.6-39.7-14.4-73.8c9.7-29.6,29.9-51.1,48-51.1
		c2.4,0,4.8,0.4,7.1,1.2c19.2,6.6,25.6,39.7,14.4,73.8C524.4,318.8,504.2,340.3,486.1,340.3L486.1,340.3z M512.7,216.9
		c-16.9,0-36,20.7-45.4,49.2c-10.7,32.7-5.1,64.2,12.7,70.3c2,0.7,4,1,6.2,1c16.9,0,36-20.7,45.4-49.2c10.7-32.7,5.1-64.2-12.7-70.3
		C516.9,217.3,514.8,216.9,512.7,216.9L512.7,216.9z"/>
	<path class="st1" d="M528,239.1c0,0,3-49.8-4.7-54.3c0,0-7.2,52.9-12.6,52.5"/>
	<path class="st1" d="M529.4,239.2l-2.8-0.2c1-16.6,1-42.7-2.4-50.8c-3.4,24-8.4,51-13.6,50.4l0.2-2.8c2.7-1.6,7.9-27.4,11.1-51.3
		l0.3-2.1l1.8,1.1C532,188.3,529.9,230.8,529.4,239.2L529.4,239.2z"/>
	<path class="st1" d="M529.7,385.5c-9.1,26.1-4.1,51.3,11.2,56.2c15.3,5,35.1-12.2,44.3-38.3c9.1-26.1,4.1-51.3-11.2-56.2
		C558.7,342.2,538.9,359.4,529.7,385.5z"/>
	<path class="st1" d="M546.5,444c-2,0-4-0.3-5.9-0.9c-5.3-1.7-9.6-5.7-12.5-11.6c-5.7-11.5-5.6-29.3,0.4-46.4
		c8.1-23.2,25-40.1,40.1-40.1c2,0,4,0.3,5.9,0.9c5.3,1.7,9.6,5.7,12.5,11.6c5.7,11.5,5.6,29.3-0.4,46.4
		C578.4,427.1,561.6,444,546.5,444L546.5,444z M568.5,347.7c-14,0-29.7,16.1-37.4,38.2c-5.7,16.4-5.9,33.4-0.5,44.3
		c2.6,5.2,6.4,8.7,10.9,10.2c1.6,0.5,3.3,0.8,5.1,0.8c14,0,29.7-16.1,37.4-38.2c5.7-16.4,5.9-33.4,0.6-44.3
		c-2.6-5.2-6.4-8.7-10.9-10.2C572,348,570.3,347.7,568.5,347.7z"/>
	<path class="st1" d="M581.3,364.7c0,0,2.5-38.9-3.9-42.4c0,0-5.9,41.3-10.4,41"/>
	<path class="st1" d="M582.6,364.8l-2.8-0.2c0.8-13.4,0.7-32-1.7-38.7c-3.9,25.7-7.7,38.8-11.3,38.8c0,0-0.1,0-0.1,0l0.2-2.8
		c2.1-1.4,6.4-21.8,9-39.8l0.3-2l1.8,1C584.8,324.9,583.1,358.2,582.6,364.8L582.6,364.8z"/>
	<g>
		<defs>
			<line id="SVGID_1_" x1="873.6" y1="1407" x2="179.1" y2="1407"/>
		</defs>
		<use xlink:href="#SVGID_1_"  style="overflow:visible;fill:#FFFFFF;"/>
		<clipPath id="SVGID_00000047038567531781278980000018101621017187384250_">
			<use xlink:href="#SVGID_1_"  style="overflow:visible;"/>
		</clipPath>
	</g>
	<g>
		<defs>
			<line id="SVGID_00000151506136263401215690000018068771810128590755_" x1="969.7" y1="1407" x2="275.2" y2="1407"/>
		</defs>
		<use xlink:href="#SVGID_00000151506136263401215690000018068771810128590755_"  style="overflow:visible;fill:#FFFFFF;"/>
		<clipPath id="SVGID_00000141420953834563368870000005553394370230087828_">
			<use xlink:href="#SVGID_00000151506136263401215690000018068771810128590755_"  style="overflow:visible;"/>
		</clipPath>
	</g>
	<g>
		<defs>
			<line id="SVGID_00000170983568156257764210000008984690642344894607_" x1="1009.8" y1="1407" x2="315.4" y2="1407"/>
		</defs>
		<use xlink:href="#SVGID_00000170983568156257764210000008984690642344894607_"  style="overflow:visible;fill:#FFFFFF;"/>
		<clipPath id="SVGID_00000138551020107450034830000002982752899026093710_">
			<use xlink:href="#SVGID_00000170983568156257764210000008984690642344894607_"  style="overflow:visible;"/>
		</clipPath>
	</g>
	<g>
		<defs>
			<line id="SVGID_00000107554508363590462040000012817142488359467678_" x1="1093.4" y1="1407" x2="399" y2="1407"/>
		</defs>
		<use xlink:href="#SVGID_00000107554508363590462040000012817142488359467678_"  style="overflow:visible;fill:#FFFFFF;"/>
		<clipPath id="SVGID_00000103952635767324249360000002922006164183144636_">
			<use xlink:href="#SVGID_00000107554508363590462040000012817142488359467678_"  style="overflow:visible;"/>
		</clipPath>
	</g>
	<g>
		<defs>
			<line id="SVGID_00000147212203063281247350000011576344566684712067_" x1="1112.2" y1="1407" x2="417.7" y2="1407"/>
		</defs>
		<use xlink:href="#SVGID_00000147212203063281247350000011576344566684712067_"  style="overflow:visible;fill:#FFFFFF;"/>
		<clipPath id="SVGID_00000023964563880883626300000006713345296425489815_">
			<use xlink:href="#SVGID_00000147212203063281247350000011576344566684712067_"  style="overflow:visible;"/>
		</clipPath>
	</g>
	<g>
		<defs>
			<line id="SVGID_00000150074779626230609930000007863951844605690558_" x1="1125.5" y1="1407" x2="431" y2="1407"/>
		</defs>
		<use xlink:href="#SVGID_00000150074779626230609930000007863951844605690558_"  style="overflow:visible;fill:#FFFFFF;"/>
		<clipPath id="SVGID_00000002369364685953505870000006560453351300571277_">
			<use xlink:href="#SVGID_00000150074779626230609930000007863951844605690558_"  style="overflow:visible;"/>
		</clipPath>
	</g>
	<g>
		<defs>
			<polyline id="SVGID_00000045578668376229007120000007747478261687259836_" points="1144.5,712.5 1144.5,1407 450.1,1407 			"/>
		</defs>
		<use xlink:href="#SVGID_00000045578668376229007120000007747478261687259836_"  style="overflow:visible;fill:#FFFFFF;"/>
		<clipPath id="SVGID_00000082358482953767422960000008845374102543074747_">
			<use xlink:href="#SVGID_00000045578668376229007120000007747478261687259836_"  style="overflow:visible;"/>
		</clipPath>
		<g style="clip-path:url(#SVGID_00000082358482953767422960000008845374102543074747_);">
			
				<use xlink:href="#d"  width="11.4" height="15.7" x="-5.7" y="-7.8" transform="matrix(0.9921 0 0 0.9921 458.0569 704.7145)" style="overflow:visible;"/>
		</g>
	</g>
	<g>
		<defs>
			<polyline id="SVGID_00000119817826160412179200000017061440310973641092_" points="800.8,740.3 800.8,1434.7 106.3,1434.7 			"/>
		</defs>
		<use xlink:href="#SVGID_00000119817826160412179200000017061440310973641092_"  style="overflow:visible;fill:#FFFFFF;"/>
		<clipPath id="SVGID_00000040538643308984498690000007565537499596029872_">
			<use xlink:href="#SVGID_00000119817826160412179200000017061440310973641092_"  style="overflow:visible;"/>
		</clipPath>
	</g>
	<g>
		<defs>
			<line id="SVGID_00000023970128013591765090000000279646335861170367_" x1="814.5" y1="1434.7" x2="120" y2="1434.7"/>
		</defs>
		<use xlink:href="#SVGID_00000023970128013591765090000000279646335861170367_"  style="overflow:visible;fill:#FFFFFF;"/>
		<clipPath id="SVGID_00000080179214315517593570000011408346087479374508_">
			<use xlink:href="#SVGID_00000023970128013591765090000000279646335861170367_"  style="overflow:visible;"/>
		</clipPath>
	</g>
	<g>
		<defs>
			<line id="SVGID_00000006680483616539677970000009050847547820796348_" x1="872.2" y1="1434.7" x2="177.7" y2="1434.7"/>
		</defs>
		<use xlink:href="#SVGID_00000006680483616539677970000009050847547820796348_"  style="overflow:visible;fill:#FFFFFF;"/>
		<clipPath id="SVGID_00000054947989836047561630000008706643704041979311_">
			<use xlink:href="#SVGID_00000006680483616539677970000009050847547820796348_"  style="overflow:visible;"/>
		</clipPath>
	</g>
	<g>
		<defs>
			<line id="SVGID_00000021811871509781033700000007378685048022040454_" x1="885.4" y1="1434.7" x2="191" y2="1434.7"/>
		</defs>
		<use xlink:href="#SVGID_00000021811871509781033700000007378685048022040454_"  style="overflow:visible;fill:#FFFFFF;"/>
		<clipPath id="SVGID_00000169518542941989948990000014533303722858323893_">
			<use xlink:href="#SVGID_00000021811871509781033700000007378685048022040454_"  style="overflow:visible;"/>
		</clipPath>
	</g>
	<g>
		<defs>
			<line id="SVGID_00000017518735622164200870000015748504481604086675_" x1="905.2" y1="1434.7" x2="210.7" y2="1434.7"/>
		</defs>
		<use xlink:href="#SVGID_00000017518735622164200870000015748504481604086675_"  style="overflow:visible;fill:#FFFFFF;"/>
		<clipPath id="SVGID_00000052796586703473866210000018278417243161743551_">
			<use xlink:href="#SVGID_00000017518735622164200870000015748504481604086675_"  style="overflow:visible;"/>
		</clipPath>
	</g>
	<g>
		<defs>
			<line id="SVGID_00000076578795495055092820000012836733091881673604_" x1="957" y1="1434.7" x2="262.5" y2="1434.7"/>
		</defs>
		<use xlink:href="#SVGID_00000076578795495055092820000012836733091881673604_"  style="overflow:visible;fill:#FFFFFF;"/>
		<clipPath id="SVGID_00000017475912343498091650000009509457443852454281_">
			<use xlink:href="#SVGID_00000076578795495055092820000012836733091881673604_"  style="overflow:visible;"/>
		</clipPath>
	</g>
	<g>
		<defs>
			<line id="SVGID_00000008126187892799189040000005711034821406501010_" x1="995.8" y1="1434.7" x2="301.4" y2="1434.7"/>
		</defs>
		<use xlink:href="#SVGID_00000008126187892799189040000005711034821406501010_"  style="overflow:visible;fill:#FFFFFF;"/>
		<clipPath id="SVGID_00000177446673206194001330000001948393144314247867_">
			<use xlink:href="#SVGID_00000008126187892799189040000005711034821406501010_"  style="overflow:visible;"/>
		</clipPath>
	</g>
	<g>
		<defs>
			<line id="SVGID_00000080194403180277339820000017249879499737425080_" x1="1045.6" y1="1434.7" x2="351.2" y2="1434.7"/>
		</defs>
		<use xlink:href="#SVGID_00000080194403180277339820000017249879499737425080_"  style="overflow:visible;fill:#FFFFFF;"/>
		<clipPath id="SVGID_00000097491453440849921970000013826501986243870099_">
			<use xlink:href="#SVGID_00000080194403180277339820000017249879499737425080_"  style="overflow:visible;"/>
		</clipPath>
	</g>
	<g>
		<defs>
			<line id="SVGID_00000126290395663367931080000000515795723765993650_" x1="1059.3" y1="1434.7" x2="364.9" y2="1434.7"/>
		</defs>
		<use xlink:href="#SVGID_00000126290395663367931080000000515795723765993650_"  style="overflow:visible;fill:#FFFFFF;"/>
		<clipPath id="SVGID_00000033354377526836038170000012988166575561338519_">
			<use xlink:href="#SVGID_00000126290395663367931080000000515795723765993650_"  style="overflow:visible;"/>
		</clipPath>
	</g>
	<g>
		<defs>
			<line id="SVGID_00000042732213673153892530000005801571805100062592_" x1="1087.9" y1="1434.7" x2="393.5" y2="1434.7"/>
		</defs>
		<use xlink:href="#SVGID_00000042732213673153892530000005801571805100062592_"  style="overflow:visible;fill:#FFFFFF;"/>
		<clipPath id="SVGID_00000101091532025547117220000009323288348771158425_">
			<use xlink:href="#SVGID_00000042732213673153892530000005801571805100062592_"  style="overflow:visible;"/>
		</clipPath>
	</g>
	<g>
		<defs>
			<line id="SVGID_00000124134121311655107740000012483993169714397836_" x1="1106.8" y1="1434.7" x2="412.3" y2="1434.7"/>
		</defs>
		<use xlink:href="#SVGID_00000124134121311655107740000012483993169714397836_"  style="overflow:visible;fill:#FFFFFF;"/>
		<clipPath id="SVGID_00000027601659258780454260000010769925119399520941_">
			<use xlink:href="#SVGID_00000124134121311655107740000012483993169714397836_"  style="overflow:visible;"/>
		</clipPath>
	</g>
	<g>
		<defs>
			<line id="SVGID_00000116939592031046354210000002552877083659076788_" x1="1123.2" y1="1434.7" x2="428.8" y2="1434.7"/>
		</defs>
		<use xlink:href="#SVGID_00000116939592031046354210000002552877083659076788_"  style="overflow:visible;fill:#FFFFFF;"/>
		<clipPath id="SVGID_00000165211766756246453280000009222859473138495417_">
			<use xlink:href="#SVGID_00000116939592031046354210000002552877083659076788_"  style="overflow:visible;"/>
		</clipPath>
	</g>
</g>
<g>
	<g>
		<path class="st0" d="M270.5,517c-4.2,5.9-6.7,10.5-7.5,14c-0.8,3.5-0.2,6,1.9,7.5c2.1,1.5,5.5,2.3,10.1,2.5l-0.8,3.4
			c-3.2-0.2-6.4-0.4-9.8-0.4c-3.4-0.1-6.5-0.1-9.5-0.1c-2.8,0-5.2,0-7.1,0.1c-1.9,0.1-3.8,0.2-5.6,0.4l0.8-3.4
			c1.6-0.3,3.2-1,4.9-2.1c1.7-1.1,3.5-2.6,5.6-4.6c2-2,4.2-4.7,6.4-7.9l72.8-102.4c0.4,0,0.9,0,1.3,0c0.4,0,0.8,0,1.3,0l6.8,106.3
			c0.3,4.1,1.4,6.8,3.1,8.4c1.7,1.5,3.5,2.3,5.2,2.5l-0.7,3.4c-2.3-0.2-5.1-0.4-8.4-0.4c-3.4-0.1-6.7-0.1-10-0.1
			c-4.1,0-7.9,0-11.5,0.1c-3.6,0.1-6.5,0.2-8.8,0.4l0.7-3.4c5.4-0.2,9.2-1.2,11.5-3c2.3-1.7,3.3-5.5,3-11.2l-4.6-83.5l1.2-0.3
			L270.5,517z M284,495.7h49.3l-1.4,3.4h-51L284,495.7z"/>
		<path class="st0" d="M372.4,506.2c0-7.4,1.1-15.1,3.2-23c2.1-7.9,5.2-15.4,9.3-22.6c4.1-7.2,9-13.7,14.8-19.4
			c5.8-5.7,12.3-10.3,19.5-13.7c7.2-3.4,15.1-5.1,23.7-5.1c12.5,0,22.3,3.5,29.3,10.6c7,7,10.6,17.1,10.6,30.2
			c0,7.4-1.1,15.1-3.3,22.9c-2.2,7.8-5.3,15.4-9.4,22.6c-4.1,7.2-9,13.7-14.8,19.4c-5.8,5.7-12.3,10.3-19.6,13.7
			c-7.3,3.4-15.1,5.1-23.6,5.1c-12.5,0-22.3-3.5-29.2-10.6C375.9,529.1,372.4,519.1,372.4,506.2z M441.3,425.4
			c-5.2,0-10.3,1.5-15.3,4.6c-5,3.1-9.7,7.4-13.9,12.8c-4.3,5.5-8.1,11.7-11.3,18.8c-3.3,7-5.8,14.6-7.7,22.6
			c-1.9,8-2.8,16.1-2.8,24.2c0,11,2.2,19.7,6.5,25.9c4.3,6.3,9.9,9.4,16.8,9.4c5.2,0,10.3-1.5,15.3-4.6c5-3.1,9.7-7.4,13.9-12.8
			c4.3-5.5,8.1-11.7,11.3-18.8c3.3-7,5.8-14.6,7.7-22.6c1.9-8,2.8-16.1,2.8-24.2c0-11-2.2-19.7-6.5-25.9
			C453.8,428.5,448.2,425.4,441.3,425.4z"/>
	</g>
</g>
</svg>
